<?xml version="1.0" standalone="no"?>
<!DOCTYPE svg PUBLIC "-//W3C//DTD SVG 20010904//EN"
 "http://www.w3.org/TR/2001/REC-SVG-20010904/DTD/svg10.dtd">
<svg version="1.0" xmlns="http://www.w3.org/2000/svg"
 width="300.000000pt" height="298.000000pt" viewBox="0 0 300.000000 298.000000"
 preserveAspectRatio="xMidYMid meet">
<metadata>
Created by potrace 1.15, written by Peter Selinger 2001-2017
</metadata>
<g transform="translate(0.000000,298.000000) scale(0.100000,-0.100000)"
fill="#000000" stroke="none">
<path d="M1575 2941 c-64 -22 -95 -50 -57 -52 9 0 -1 -7 -23 -15 -22 -8 -45
-12 -51 -10 -7 3 -15 -2 -18 -10 -6 -15 -61 -20 -70 -5 -7 11 -54 2 -63 -12
-4 -6 2 -8 15 -5 12 4 20 3 17 -2 -2 -4 -25 -10 -50 -13 -25 -4 -64 -15 -88
-25 -23 -10 -57 -25 -74 -32 -18 -7 -33 -17 -33 -22 0 -6 8 -7 18 -3 69 31
210 75 236 75 18 0 46 4 62 10 25 8 143 16 272 19 31 1 47 21 16 21 -8 0 -13
4 -10 9 7 11 -38 31 -70 31 -14 0 -23 4 -19 9 3 5 -5 12 -17 14 -13 2 -4 5 20
6 23 0 42 6 42 11 0 11 -24 12 -55 1z"/>
<path d="M1520 2813 c-98 -9 -123 -15 -109 -24 12 -8 12 -10 -1 -19 -19 -12
-43 -13 -36 -1 3 5 -1 12 -10 15 -24 9 -27 8 -21 -13 4 -16 -6 -21 -59 -36
-35 -10 -67 -21 -69 -26 -7 -10 58 0 110 17 22 8 78 19 125 25 47 6 92 14 100
18 8 4 36 14 62 21 81 24 35 36 -92 23z"/>
<path d="M1430 2707 c-3 -2 -32 -7 -64 -11 -41 -4 -65 -12 -78 -26 -21 -23
-35 -25 -40 -8 -5 13 -28 2 -28 -13 0 -6 4 -7 10 -4 5 3 7 0 4 -8 -6 -17 -22
-25 -134 -67 -47 -18 -116 -48 -154 -66 -78 -38 -80 -39 -70 -23 12 21 -40
-13 -78 -50 -50 -49 -66 -61 -76 -61 -4 0 -25 -22 -46 -50 -21 -27 -44 -50
-52 -50 -8 0 -14 -8 -14 -18 0 -10 -10 -28 -22 -39 -28 -26 -68 -77 -88 -113
-8 -15 -19 -26 -25 -24 -14 5 -45 -61 -45 -94 0 -19 -3 -23 -9 -13 -7 11 -9
11 -14 0 -3 -8 -6 -4 -6 9 -1 12 -5 22 -10 22 -16 0 61 132 80 137 11 3 19 10
19 15 0 5 7 16 15 24 8 9 15 21 15 27 0 7 -12 -1 -25 -16 -14 -15 -25 -22 -25
-15 0 7 -14 -8 -30 -34 -52 -83 -97 -180 -126 -270 -16 -49 -32 -88 -36 -88
-3 0 -2 15 3 33 6 17 16 52 23 77 7 25 18 54 24 65 21 40 50 124 44 129 -3 3
-14 -1 -24 -11 -17 -15 -18 -15 -18 13 0 26 -2 24 -24 -21 -14 -27 -25 -44
-25 -38 -1 12 33 127 50 171 15 39 -7 24 -26 -18 -10 -23 -21 -36 -24 -31 -9
13 -26 0 -34 -24 -3 -11 -24 -68 -47 -128 -22 -59 -38 -112 -34 -119 4 -6 3
-8 -3 -5 -7 4 -19 -29 -34 -88 -20 -87 -38 -121 -40 -77 -1 29 -28 -40 -29
-75 0 -17 5 -33 12 -35 7 -3 8 -10 4 -17 -7 -11 -10 -11 -17 0 -12 19 -11
-255 1 -356 17 -147 98 -349 201 -500 89 -131 357 -390 516 -498 142 -96 183
-112 269 -104 37 4 71 11 78 15 6 5 20 8 31 6 26 -4 96 16 113 33 7 7 21 18
30 25 28 22 79 101 87 136 7 35 -2 128 -12 118 -3 -3 -18 14 -33 37 -35 55
-128 137 -157 137 -12 0 -25 5 -28 11 -4 6 -14 8 -22 5 -8 -3 -32 3 -54 14
-40 21 -52 17 -21 -6 15 -12 12 -12 -17 -4 -18 5 -36 8 -40 8 -3 -1 -21 6 -39
15 -17 10 -32 14 -32 11 0 -4 -9 1 -20 11 -24 22 -39 13 -19 -12 13 -17 13
-17 -11 0 -26 18 -88 48 -105 51 -24 4 -36 18 -26 30 14 17 1 29 -16 14 -19
-16 -56 21 -100 100 -23 41 -38 59 -43 52 -5 -9 -10 -6 -15 9 -10 33 5 46 23
19 27 -40 65 -77 74 -72 4 3 -8 24 -27 47 -20 23 -34 46 -31 53 2 6 -1 17 -7
23 -6 6 -8 11 -5 11 3 0 25 -26 49 -57 52 -70 75 -90 113 -99 16 -3 44 -15 63
-26 18 -11 37 -18 40 -14 7 7 -45 54 -69 62 -9 3 -20 14 -23 25 -4 10 -13 19
-21 19 -8 0 -12 5 -9 10 3 6 -7 18 -24 28 -33 18 -42 35 -13 25 9 -3 41 -29
70 -57 28 -27 52 -46 52 -40 0 6 -3 14 -7 18 -4 4 -8 13 -8 19 0 7 -10 26 -23
42 -17 21 -25 26 -31 17 -6 -10 -12 -6 -25 12 -9 14 -12 26 -7 26 5 0 11 -6
14 -12 2 -7 7 -11 10 -8 7 7 -54 99 -66 100 -4 0 -3 -10 4 -21 19 -36 -9 -12
-35 29 -28 44 -72 144 -52 119 12 -15 14 -12 14 27 1 25 -5 58 -13 73 -17 32
-21 138 -5 128 6 -3 10 -2 10 4 0 5 -5 11 -11 13 -7 2 -12 30 -13 68 -1 40 -6
71 -15 79 -16 18 -7 121 12 133 7 4 9 8 5 8 -4 0 0 16 8 35 8 19 14 37 14 40
0 3 0 9 0 14 0 5 10 11 21 13 12 2 26 14 30 27 8 19 6 22 -7 17 -11 -4 -14 -1
-12 12 2 9 11 17 21 17 17 0 70 78 96 142 7 18 18 31 25 30 6 -1 10 6 8 15 -2
11 2 16 10 13 8 -3 18 7 25 25 6 16 18 30 27 30 9 0 16 4 16 10 0 5 13 25 30
43 32 37 39 60 15 51 -13 -5 -14 -2 -5 21 14 36 12 54 -3 33 -8 -9 -18 -13
-25 -9 -22 13 53 71 184 142 121 65 163 82 149 59 -3 -5 -2 -10 4 -10 23 0 -2
-26 -42 -44 -23 -11 -58 -31 -77 -45 -19 -14 -37 -26 -39 -28 -2 -2 -1 -6 2
-9 4 -4 19 2 34 12 30 19 125 55 132 49 8 -9 -56 -56 -92 -67 -21 -6 -41 -18
-44 -25 -3 -7 -10 -13 -15 -13 -13 0 -70 -41 -65 -46 2 -2 34 11 70 30 36 18
69 31 72 28 3 -3 5 2 5 11 0 9 3 16 8 15 4 -1 21 6 39 15 18 9 45 17 62 17 16
0 33 5 36 10 4 6 11 7 17 4 6 -4 -4 -14 -23 -24 -60 -29 -174 -92 -186 -102
-7 -5 -17 -7 -22 -4 -17 11 -153 -85 -227 -159 -38 -40 -89 -99 -111 -133 -49
-73 -103 -209 -103 -260 0 -24 -3 -32 -9 -24 -6 10 -10 8 -14 -8 -6 -23 0 -50
12 -50 4 0 15 24 25 53 16 48 46 117 67 159 5 10 9 26 9 37 0 10 6 21 13 24 7
3 19 23 25 46 7 22 16 40 20 38 4 -1 38 30 75 69 36 39 86 84 109 100 24 16
45 32 46 37 2 4 10 7 17 7 7 0 15 3 17 8 9 22 254 127 346 148 129 31 342 25
342 -9 0 -9 2 -9 8 1 11 16 88 1 84 -16 -1 -7 2 -12 7 -12 5 0 17 -3 27 -7 12
-4 15 -3 10 5 -5 9 0 9 18 2 71 -27 164 -87 200 -130 29 -35 42 -39 25 -8 -7
13 13 -4 44 -37 31 -33 57 -63 57 -66 0 -3 9 -16 20 -29 11 -13 20 -29 20 -37
0 -8 5 -11 10 -8 6 3 10 -1 10 -10 0 -9 7 -26 15 -39 35 -54 113 -288 119
-361 4 -36 3 -40 -2 -15 -10 51 -21 23 -12 -32 7 -48 5 -58 -13 -58 -5 0 -6
18 -2 41 5 28 3 44 -5 49 -7 4 -16 27 -21 51 -4 24 -11 55 -13 69 -7 33 -68
194 -77 200 -3 3 -14 19 -23 35 -25 44 -13 3 32 -105 63 -155 85 -269 86 -450
1 -214 -23 -315 -117 -478 -55 -96 -172 -252 -189 -252 -6 0 -8 -7 -5 -15 4
-8 1 -17 -5 -21 -7 -4 -8 -3 -4 4 10 16 -5 15 -26 -2 -10 -7 -18 -25 -18 -38
0 -25 -22 -53 -32 -42 -7 6 -58 -20 -105 -54 -17 -12 -35 -22 -40 -22 -4 0
-19 -9 -32 -19 -23 -18 -23 -18 -2 -24 11 -3 19 -1 15 4 -3 5 5 9 17 9 12 0
44 14 71 30 26 17 51 30 55 30 13 0 -61 -51 -139 -97 -78 -45 -96 -60 -57 -48
15 5 19 4 15 -4 -9 -14 10 -14 37 0 25 14 41 27 70 55 12 11 37 24 56 28 19 3
33 4 30 2 -11 -11 -108 -74 -123 -79 -9 -4 -16 -11 -16 -16 0 -5 -9 -13 -20
-16 -11 -4 -18 -11 -15 -16 4 -5 18 -3 34 6 16 8 31 12 34 8 3 -3 25 10 47 30
33 28 90 54 90 42 0 -6 -129 -83 -149 -90 -27 -8 -28 -29 -1 -22 11 3 23 1 26
-4 4 -6 10 -6 18 0 17 14 157 71 151 61 -5 -8 -92 -60 -146 -88 -14 -7 -41
-27 -59 -44 -37 -33 -94 -61 -104 -51 -3 4 -6 1 -6 -5 0 -19 24 -19 68 0 49
20 66 23 57 8 -3 -5 -2 -10 3 -10 10 0 129 52 166 72 104 56 111 59 86 39 -14
-12 -80 -48 -148 -82 -68 -34 -121 -63 -118 -66 3 -3 13 -2 23 2 10 5 23 9 28
10 22 6 172 80 197 98 15 11 38 21 50 22 13 1 22 7 21 12 -1 6 12 10 29 11 17
0 36 6 41 11 14 14 30 14 22 1 -7 -12 7 -13 21 -2 5 4 -4 -5 -21 -20 -16 -15
-34 -28 -38 -28 -4 0 -17 -8 -28 -19 -11 -10 -37 -27 -57 -37 -20 -11 -50 -29
-67 -40 -39 -28 -147 -79 -210 -99 -47 -15 -64 -29 -65 -48 0 -16 219 31 245
52 5 5 25 12 44 16 19 4 41 14 49 21 7 8 31 17 53 20 23 4 44 14 49 24 5 10
21 21 35 24 14 4 25 13 25 21 0 7 10 17 23 21 33 10 97 57 97 72 0 6 8 12 18
12 19 0 129 100 124 113 -1 4 18 29 42 55 62 65 96 114 166 237 9 17 15 35 13
42 -3 7 5 22 16 35 12 12 21 26 21 31 0 8 17 51 42 104 6 12 11 40 11 62 0 22
3 38 7 36 4 -3 11 7 15 22 4 16 2 29 -4 31 -7 2 -7 11 0 25 5 12 16 54 23 92
8 39 15 57 15 41 2 -51 12 -20 20 58 6 63 4 76 -9 80 -12 3 -11 4 3 5 11 1 17
9 16 24 -1 26 -17 69 -18 48 -2 -42 -12 11 -25 135 -14 131 -45 275 -80 371
-25 69 -110 234 -154 299 -23 34 -42 65 -42 70 -1 5 -30 38 -65 74 -36 36 -65
71 -65 78 0 6 -9 12 -20 12 -11 0 -19 6 -17 13 1 6 -3 11 -9 10 -6 -1 -26 11
-45 28 -19 16 -41 27 -49 24 -8 -4 -11 -3 -7 1 9 10 -13 35 -25 28 -12 -8
-100 34 -93 45 3 5 -5 7 -17 4 -19 -4 -20 -3 -8 6 9 7 10 11 3 11 -6 0 -15 -5
-18 -10 -4 -7 -12 -7 -25 0 -23 12 -30 13 -30 1 0 -5 10 -13 23 -17 30 -9 70
-41 59 -48 -4 -2 -32 9 -62 25 -58 31 -80 36 -80 17 0 -7 30 -28 68 -47 93
-48 152 -89 152 -107 0 -8 4 -13 8 -10 5 3 15 -6 22 -19 7 -14 16 -25 19 -25
23 0 131 -129 131 -156 -1 -13 -6 -9 -18 15 -9 19 -21 33 -27 33 -5 -1 -30 18
-55 42 -52 50 -215 163 -267 186 -12 5 -31 18 -43 30 -11 11 -23 19 -28 19
-21 -4 -42 2 -37 10 3 5 1 12 -5 16 -5 3 -10 2 -10 -4 0 -5 -26 0 -57 11 -123
43 -248 68 -373 74 -69 4 -127 4 -130 1z m989 -1224 c1 -26 8 -51 14 -55 9 -6
9 -10 1 -15 -15 -11 -28 -113 -14 -113 14 0 5 -50 -25 -150 -26 -89 -57 -160
-67 -160 -5 0 -8 -5 -8 -10 0 -34 -177 -270 -203 -270 -5 0 -3 8 6 18 10 10
17 24 17 30 0 7 5 11 12 10 6 -2 22 13 35 32 13 19 31 46 41 58 22 31 60 93
68 112 3 8 21 45 40 82 18 37 31 74 28 82 -3 7 2 20 10 29 18 17 21 32 6 22
-5 -3 -10 -1 -10 4 0 6 3 11 8 11 4 0 8 15 8 33 1 17 6 61 12 97 5 36 9 95 7
133 -1 37 1 67 4 67 4 0 8 -21 10 -47z"/>
<path d="M899 2662 c-15 -9 -56 -34 -93 -55 -79 -46 -289 -249 -311 -299 -7
-19 -21 -41 -30 -48 -25 -21 -57 -92 -45 -104 6 -6 11 -3 15 7 10 33 11 35 62
115 11 18 24 34 29 35 4 1 32 29 63 62 31 33 72 73 91 90 19 16 48 44 65 62
26 28 99 83 110 83 6 0 105 63 105 66 0 10 -38 1 -61 -14z"/>
</g>
</svg>
